<svg preserveAspectRatio="none" overflow="visible" style="display: block;" width="40" height="40" viewBox="0 0 40 40" fill="none" xmlns="http://www.w3.org/2000/svg">
<g id="&#208;&#152;&#208;&#186;&#208;&#190;&#208;&#189;&#208;&#186;&#208;&#176; &#226;&#128;&#148; &#208;&#166;&#208;&#184;&#208;&#186;&#208;&#187;&#208;&#184;&#209;&#135;&#208;&#189;&#208;&#190;&#209;&#129;&#209;&#130;&#209;&#140;">
<path id="Union" d="M9.81917 21.912C9.92054 21.9122 10.4781 22.0402 10.8524 22.1503C10.9604 22.1823 11.1476 22.225 11.2664 22.2499C11.3853 22.2748 11.6051 22.328 11.7528 22.3671C11.9005 22.4097 12.2242 22.4916 12.4725 22.5556C12.7207 22.6159 13.0195 22.6977 13.1385 22.7333C13.3366 22.7937 14.1041 22.9997 14.7235 23.1561C14.8638 23.1881 15.0867 23.2522 15.2235 23.2948C15.3567 23.3339 15.5012 23.369 15.5409 23.369C15.5806 23.3691 15.7066 23.4085 15.8182 23.4618C16.1853 23.6218 16.3254 23.9809 16.1346 24.2616C16.0441 24.3933 15.666 24.6849 15.0077 25.1288C14.5256 25.4555 14.4891 25.484 14.4891 25.5692C14.4891 25.7221 15.3932 26.5118 16.0018 26.8886C17.8561 28.0365 19.6028 28.4558 21.702 28.2567C22.2637 28.2034 22.8145 28.0893 23.4373 27.8974C23.6174 27.844 23.7942 27.7806 23.8338 27.7558C23.8734 27.7344 23.9455 27.7016 23.9959 27.6874C24.0984 27.6581 24.8706 27.282 25.0936 27.1542C25.4428 26.9516 25.4975 26.9169 25.6522 26.7997C25.7422 26.7322 25.8537 26.6461 25.9041 26.6141C25.9547 26.582 26.1633 26.4154 26.3719 26.245C27.0237 25.7118 27.5246 25.1531 28.036 24.3817C28.2626 24.0372 28.367 23.8524 28.5614 23.4403C28.9645 22.5804 29.0727 22.4341 29.4217 22.2636C29.6486 22.1534 30.0021 22.1497 30.3514 22.2528C30.9599 22.4341 31.4175 22.5659 31.702 22.6405C32.1841 22.7684 32.3355 22.8328 32.5155 22.9891C32.8573 23.2842 32.9506 23.7282 32.785 24.2577C32.7382 24.4034 32.6878 24.5417 32.6698 24.5595C32.6554 24.5808 32.6085 24.6804 32.5653 24.787C32.4645 25.0429 32.0003 25.981 31.8885 26.1591C31.7913 26.3119 31.7092 26.4441 31.5291 26.7284C31.4031 26.9275 31.2942 27.0835 31.161 27.2577C31.1106 27.3217 31.0317 27.4281 30.9813 27.4921C30.6644 27.9151 29.6486 28.9605 29.076 29.4511C28.5288 29.9201 27.6076 30.5596 27.0028 30.8866C26.9235 30.9293 26.7787 31.011 26.6815 31.0643C26.5013 31.1639 25.8616 31.4516 25.6883 31.5087C25.6379 31.5264 25.4687 31.5909 25.3104 31.6513C24.3453 32.0245 23.5059 32.2342 22.4832 32.3622C21.457 32.4902 20.9201 32.5181 20.3368 32.4755C19.3467 32.4008 18.6157 32.3233 18.3241 32.2558C18.1658 32.2202 17.9718 32.1805 17.8924 32.1698C17.5432 32.113 16.5063 31.7935 15.9481 31.5731C15.3287 31.3243 14.1182 30.7163 13.9598 30.5741C13.9202 30.5422 13.8768 30.5136 13.866 30.5136C13.806 30.5116 13.0481 29.9764 12.6922 29.6854C12.3249 29.3833 11.6879 28.7827 11.2235 28.2958C11.0722 28.1394 10.9672 28.0614 10.9168 28.0614C10.8698 28.0617 10.7547 28.1181 10.6541 28.1854C10.5569 28.253 10.4091 28.3558 10.3299 28.4091C10.1462 28.5371 9.6751 28.8573 9.41585 29.035C9.16739 29.2021 8.91871 29.2589 8.69906 29.202C8.57666 29.1665 8.52668 29.1271 8.44027 28.9921C8.30706 28.7824 8.30305 28.6512 8.40023 27.5497C8.43984 27.1196 8.48995 26.4505 8.51156 26.0702C8.53317 25.6899 8.5726 25.1281 8.6014 24.8261C8.6302 24.5239 8.67062 23.97 8.69222 23.6005C8.73902 22.7369 8.80018 22.52 9.08089 22.2499C9.22493 22.1113 9.32932 22.0434 9.49496 21.9901C9.61739 21.9475 9.76516 21.9156 9.81917 21.912ZM19.2889 7.0204C19.8219 6.98099 21.4342 7.00244 21.9813 7.05263C22.5537 7.10642 23.7705 7.35779 24.1844 7.50477C24.2635 7.53341 24.4106 7.57929 24.5077 7.60438C24.684 7.65457 25.0731 7.79498 25.4618 7.94911C25.692 8.0387 26.5593 8.46829 26.9051 8.662C27.9741 9.26426 29.0871 10.1749 29.9618 11.1679C30.2569 11.5013 30.2996 11.5264 30.4256 11.4296C30.4761 11.3901 30.6636 11.2575 30.8436 11.1356C31.0199 11.0138 31.24 10.8603 31.3299 10.7958C31.952 10.3266 32.1247 10.2325 32.3045 10.2538C32.4952 10.2789 32.719 10.4402 32.8055 10.6229C32.8919 10.795 32.8848 11.0179 32.784 11.7313C32.7552 11.9286 32.7151 12.4054 32.6971 12.789C32.6611 13.5162 32.5964 14.3508 32.5711 14.4306C32.5603 14.4556 32.5277 14.9075 32.4989 15.4345C32.4377 16.5028 32.4274 16.5962 32.3338 16.8651C32.215 17.2129 31.9771 17.4317 31.5955 17.5429C31.4015 17.5965 31.3689 17.5963 31.0272 17.539C30.8259 17.5032 30.592 17.4498 30.5018 17.414C30.4118 17.3817 30.2743 17.3424 30.1952 17.328C30.1158 17.3136 29.9217 17.2632 29.7635 17.2167C29.6051 17.1701 29.3312 17.0904 29.1512 17.0438C28.9751 16.9937 28.7559 16.9371 28.6659 16.912C28.5759 16.8905 28.374 16.8362 28.2157 16.7968C28.0573 16.7573 27.7978 16.6891 27.6395 16.6425C27.4809 16.5994 27.1244 16.5097 26.8475 16.4452C26.5707 16.3808 26.2617 16.3024 26.1571 16.2665C26.0527 16.2271 25.8683 16.1806 25.7459 16.1591C25.2962 16.0766 25.0371 15.8719 25.0047 15.5673C24.9687 15.2626 25.0552 15.1407 25.5516 14.7968C25.6235 14.7466 25.7351 14.6673 25.8035 14.6171C25.8719 14.5669 26.0595 14.4375 26.2215 14.33C26.7685 13.9644 26.7724 13.9284 26.3729 13.5341C25.9195 13.0968 25.4083 12.692 24.8866 12.3622C24.4727 12.1042 23.483 11.6558 23.0868 11.5516C23.0364 11.5409 22.8662 11.4908 22.7078 11.4442C21.9091 11.2149 21.362 11.1399 20.4588 11.1434C19.5481 11.1434 19.1338 11.1936 18.2987 11.4159C17.7696 11.5557 17.6254 11.5985 17.5174 11.6522C17.4527 11.6881 17.384 11.7138 17.366 11.7138C17.3422 11.715 17.1203 11.814 16.87 11.9315C15.4085 12.627 14.2707 13.5814 13.3924 14.8397C13.1369 15.2089 12.9781 15.4886 12.5858 16.2772C12.2943 16.8614 12.1145 17.0945 11.8338 17.2343C11.589 17.3526 11.2507 17.3487 10.8475 17.2196C10.3295 17.0584 10.0811 16.983 9.90121 16.9472C9.80402 16.9256 9.6701 16.8863 9.60531 16.8612C9.54034 16.8325 9.39283 16.7899 9.27425 16.7684C9.15943 16.7434 9.01964 16.7004 8.96175 16.6718C8.77818 16.575 8.54014 16.3273 8.42855 16.1122C8.33139 15.9187 8.32433 15.8756 8.33871 15.6249C8.3531 15.3524 8.42173 15.1156 8.60531 14.7069C8.73121 14.4275 8.93198 14.0153 8.99691 13.9003C9.02571 13.8501 9.06582 13.7708 9.08382 13.7206C9.10556 13.6702 9.16993 13.5486 9.22738 13.452C9.28497 13.3517 9.361 13.2223 9.39339 13.1649C9.45191 13.0561 10.034 12.1765 10.117 12.0722C10.8802 11.1042 11.6757 10.29 12.41 9.72352C13.4429 8.92778 14.609 8.26469 15.6707 7.86317C15.8579 7.79147 16.0633 7.71217 16.1209 7.68349C16.229 7.63686 16.7514 7.48247 17.2733 7.34267C17.8456 7.18857 18.6124 7.06699 19.2889 7.0204Z" fill="#00BEE4"/>
</g>
</svg>
